Coordinates
version=1
nRows=4
nColumns=63
inDegrees=yes

Units are S.I. units (second, meters, Newtons, ...)
If the header above contains a line with 'inDegrees', this indicates whether rotational values are in degrees (yes) or radians (no).

endheader
time	pelvis_tilt	pelvis_list	pelvis_rotation	pelvis_tx	pelvis_ty	pelvis_tz	hip_flexion_r	hip_adduction_r	hip_rotation_r	knee_angle_r	knee_angle_r_beta	ankle_angle_r	subtalar_angle_r	mtp_angle_r	hip_flexion_l	hip_adduction_l	hip_rotation_l	knee_angle_l	knee_angle_l_beta	ankle_angle_l	subtalar_angle_l	mtp_angle_l	L5_S1_Flex_Ext	L5_S1_Lat_Bending	L5_S1_axial_rotation	L4_L5_Flex_Ext	L4_L5_Lat_Bending	L4_L5_axial_rotation	L3_L4_Flex_Ext	L3_L4_Lat_Bending	L3_L4_axial_rotation	L2_L3_Flex_Ext	L2_L3_Lat_Bending	L2_L3_axial_rotation	L1_L2_Flex_Ext	L1_L2_Lat_Bending	L1_L2_axial_rotation	L1_T12_Flex_Ext	L1_T12_Lat_Bending	L1_T12_axial_rotation	Abs_r3	Abs_r2	Abs_r1	Abs_t1	Abs_t2	neck_flexion	neck_bending	neck_rotation	arm_flex_r	arm_add_r	arm_rot_r	elbow_flex_r	pro_sup_r	wrist_flex_r	wrist_dev_r	arm_flex_l	arm_add_l	arm_rot_l	elbow_flex_l	pro_sup_l	wrist_flex_l	wrist_dev_l
      0.00000000	     -3.24832297	     -3.11441588	     71.55038184	      0.19709268	      0.86892836	      0.57701944	     10.50307861	      4.56525701	     -0.27989160	     14.37978172	      0.25097454	     39.74566236	      5.91179398	      0.00000000	      7.83093786	     -2.45019405	    -10.02924639	     11.81444222	      0.20620092	     41.91688736	     14.61645708	      0.00000000	      0.70208498	      0.51422184	      0.48012977	      1.30384201	      0.68391505	      0.51013788	      1.15345541	      1.25027898	      0.51013788	      0.80241292	      1.25027898	      0.42011355	      0.65195611	      1.04860117	      0.39010544	      0.40117136	      0.79652963	      0.36009733	      5.01492278	      5.81698029	      2.67033773	      0.00000000	      0.00000000	     28.29343892	     -4.94870205	    -10.12403683	     19.19722316	     -6.57070168	     75.39529259	     35.51816079	     28.24501711	      4.13227036	     -0.13387021	     20.06207143	     -2.88010315	     65.79403798	     34.10085625	     37.97642569	      6.22604577	      8.06394054
      0.01666667	     -3.44623544	     -3.19026956	     71.90670078	      0.19631925	      0.86943592	      0.57669486	     10.35985288	      4.36568250	      0.07886465	     14.00061164	      0.24435677	     39.68665068	      5.37827702	      0.00000000	      8.18719888	     -2.19690881	     -9.65794717	     12.00950496	      0.20960540	     41.71959396	     14.46327008	      0.00000000	      0.71094407	      0.51433366	      0.40312671	      1.32029424	      0.68406377	      0.42832213	      1.16801002	      1.25055086	      0.42832213	      0.81253798	      1.25055086	      0.35273587	      0.66018267	      1.04882920	      0.32754045	      0.40623344	      0.79670284	      0.30234503	      5.07820242	      5.81824522	      2.24206983	      0.00000000	      0.00000000	     28.31402247	     -3.27555553	     -6.35050539	     18.96086656	     -6.23860192	     74.47157401	     35.66185697	     26.95731188	      2.69560818	      0.84410551	     19.56907163	     -2.58931981	     66.10397550	     32.85541242	     37.71995835	      5.70446680	      6.42481003
      0.03333333	     -3.61179462	     -3.21895963	     72.00246446	      0.19586901	      0.86985293	      0.57660922	     10.30206841	      4.14272405	      0.01733352	     13.80467318	      0.24093700	     39.74261692	      5.59301465	      0.00000000	      8.38672198	     -1.95512982	     -9.27621036	     12.10105537	      0.21120326	     41.53980387	     13.96640580	      0.00000000	      0.71186857	      0.52800657	      0.31398815	      1.32201111	      0.70224874	      0.33361241	      1.16952887	      1.28379519	      0.33361241	      0.81359458	      1.28379519	      0.27473963	      0.66104115	      1.07671101	      0.25511537	      0.40676170	      0.81788218	      0.23549111	      5.08480598	      5.97291597	      1.74630791	      0.00000000	      0.00000000	     28.32735650	     -0.77970718	     -0.99625309	     19.36232244	     -5.85651924	     75.45331456	     35.22874953	     25.81559355	      2.06228594	      1.03692061	     19.30560155	     -2.42965815	     66.58552775	     32.00656595	     36.47586318	      5.32106188	      5.55714696
      0.05000000	     -3.73809772	     -3.20760500	     72.08113617	      0.19571155	      0.87013722	      0.57637171	     10.18892318	      4.00266990	      0.28232593	     13.59107259	      0.23720897	     39.73006828	      5.35056727	      0.00000000	      8.48766822	     -1.73664011	     -8.72130179	     12.15312989	      0.21211213	     41.39307145	     13.26668204	      0.00000000	      0.71090880	      0.51745735	      0.30073942	      1.32022873	      0.68821827	      0.31953564	      1.16795207	      1.25814580	      0.31953564	      0.81249767	      1.25814580	      0.26314699	      0.66014991	      1.05519903	      0.24435078	      0.40621329	      0.80154143	      0.22555457	      5.07795046	      5.85358103	      1.67262244	      0.00000000	      0.00000000	     28.33459762	     -0.39515483	     -0.15275747	     19.22532082	     -5.73121865	     74.85835963	     35.13910100	     25.32044370	      1.81051807	      1.25034674	     19.11596083	     -2.23409843	     66.70955233	     31.58649239	     36.28518091	      4.41183653	      5.29352792
